<svg id="visual" viewBox="0 0 900 600" width="900" height="600" xmlns="http://www.w3.org/2000/svg" xmlns:xlink="http://www.w3.org/1999/xlink" version="1.1"><rect x="0" y="0" width="900" height="600" fill="#001220"></rect><defs><linearGradient id="grad1_0" x1="33.3%" y1="0%" x2="100%" y2="100%"><stop offset="20%" stop-color="#00cc99" stop-opacity="1"></stop><stop offset="80%" stop-color="#00cc99" stop-opacity="1"></stop></linearGradient></defs><defs><linearGradient id="grad1_1" x1="33.3%" y1="0%" x2="100%" y2="100%"><stop offset="20%" stop-color="#00cc99" stop-opacity="1"></stop><stop offset="80%" stop-color="#001220" stop-opacity="1"></stop></linearGradient></defs><defs><linearGradient id="grad2_0" x1="0%" y1="0%" x2="66.7%" y2="100%"><stop offset="20%" stop-color="#00cc99" stop-opacity="1"></stop><stop offset="80%" stop-color="#00cc99" stop-opacity="1"></stop></linearGradient></defs><defs><linearGradient id="grad2_1" x1="0%" y1="0%" x2="66.7%" y2="100%"><stop offset="20%" stop-color="#001220" stop-opacity="1"></stop><stop offset="80%" stop-color="#00cc99" stop-opacity="1"></stop></linearGradient></defs><g transform="translate(900, 0)"><path d="M0 459.7C-53.3 435.8 -106.6 411.9 -162.6 392.6C-218.7 373.4 -277.5 358.9 -323.9 323.9C-370.2 288.8 -404.1 233.3 -424.7 175.9C-445.3 118.5 -452.5 59.3 -459.7 0L0 0Z" fill="#00697a"></path><path d="M0 229.9C-26.6 217.9 -53.3 205.9 -81.3 196.3C-109.3 186.7 -138.7 179.4 -161.9 161.9C-185.1 144.4 -202.1 116.7 -212.4 88C-222.6 59.3 -226.2 29.6 -229.9 0L0 0Z" fill="#00cc99"></path></g><g transform="translate(0, 600)"><path d="M0 -459.7C60.4 -453.8 120.8 -447.9 175.9 -424.7C231.1 -401.6 281 -361.2 314 -314C346.9 -266.7 362.9 -212.7 384.3 -159.2C405.8 -105.7 432.8 -52.9 459.7 0L0 0Z" fill="#00697a"></path><path d="M0 -229.9C30.2 -226.9 60.4 -223.9 88 -212.4C115.5 -200.8 140.5 -180.6 157 -157C173.5 -133.4 181.4 -106.3 192.2 -79.6C202.9 -52.9 216.4 -26.4 229.9 0L0 0Z" fill="#00cc99"></path></g></svg>